<svg xmlns="http://www.w3.org/2000/svg" viewBox="0 0 1200 630" width="1200" height="630">
  <defs>
    <linearGradient id="bg" x1="0" y1="0" x2="1" y2="1">
      <stop offset="0%" stop-color="#0B0E14"/><stop offset="100%" stop-color="#151A23"/>
    </linearGradient>
    <linearGradient id="v" x1="0" y1="0" x2="1" y2="1">
      <stop offset="0%" stop-color="#7C5CFF"/><stop offset="100%" stop-color="#9B7FFF"/>
    </linearGradient>
  </defs>
  <rect width="1200" height="630" fill="url(#bg)"/>
  <g transform="translate(90,175)">
    <rect width="280" height="280" rx="60" fill="url(#v)"/>
    <path d="M70 70 h140 a30 30 0 0 1 30 30 v78 a30 30 0 0 1 -30 30 h-64 l-40 34 v-34 h-36 a30 30 0 0 1 -30 -30 v-78 a30 30 0 0 1 30 -30 z" fill="#0B0E14" opacity="0.92"/>
    <text x="140" y="180" text-anchor="middle" font-family="Outfit, Arial, sans-serif" font-size="100" font-weight="800" fill="#fff">?</text>
  </g>
  <text x="440" y="290" font-family="Outfit, Arial, sans-serif" font-size="96" font-weight="800" fill="#FFFFFF">TriviaParty</text>
  <text x="446" y="360" font-family="Inter, Arial, sans-serif" font-size="38" font-weight="500" fill="#97A3B6">Play live trivia with friends. Free.</text>
  <g transform="translate(446,410)">
    <rect width="150" height="56" rx="14" fill="#FF6B35"/><text x="75" y="38" text-anchor="middle" font-family="Inter,Arial" font-size="26" font-weight="700" fill="#fff">Rooms</text>
    <rect x="170" width="190" height="56" rx="14" fill="#2D9CDB"/><text x="265" y="38" text-anchor="middle" font-family="Inter,Arial" font-size="26" font-weight="700" fill="#fff">Challenges</text>
    <rect x="380" width="170" height="56" rx="14" fill="#2DE1A9"/><text x="465" y="38" text-anchor="middle" font-family="Inter,Arial" font-size="26" font-weight="700" fill="#0B0E14">Power-ups</text>
  </g>
</svg>
